<svg version="1.0" xmlns="http://www.w3.org/2000/svg" width="933.333" height="933.333" viewBox="0 0 700 700"><path d="M8 87.7c0 .1 2.2 4 4.9 8.5 2.7 4.6 5.9 10.1 7.1 12.3 1.2 2.2 7.3 12.8 13.5 23.5 20.9 36.1 44.2 76.5 46.7 81 1.4 2.5 8.3 14.4 15.3 26.5 7.1 12.1 13.9 24 15.3 26.5 1.4 2.5 7.1 12.4 12.7 22s11.3 19.5 12.7 22c11.4 20.2 44.3 76.8 45.2 77.8.9.9 8.6 1.2 34.3 1l33-.3-6-10.5c-3.3-5.8-6.8-12.1-7.9-14-1.1-1.9-3.5-6-5.3-9-1.8-3-4.4-7.5-5.7-10-1.4-2.5-6.7-11.7-11.8-20.5-5.1-8.8-10.1-17.4-11-19-4.4-7.7-19.1-33.2-19.9-34.5-.5-.8-5.3-9.2-10.7-18.5-18.5-32.2-48.4-84-49.4-85.5-.6-.8-1.4-2.4-2-3.5-.5-1.1-2.9-5.4-5.3-9.5l-4.5-7.5 100.9-.3L311 146l-.2-29.3-.3-29.2H159.3c-83.2 0-151.3.1-151.3.2zM389.4 87.9c-.2.2-.4 13.4-.4 29.3V146l101 .2 101.1.3-4.6 7.3c-2.5 4.1-4.5 7.5-4.5 7.7 0 .2-3.9 7-8.6 15.2-4.8 8.1-9.8 16.8-11.2 19.3-2.4 4.2-24.7 42.8-50.2 87-6.2 10.7-12.2 21.1-13.2 23-1.1 1.9-8.7 15-16.8 29-8.1 14-15.6 27.1-16.6 29-1.1 1.9-3.8 6.6-6.1 10.5-5 8.4-51.7 89.3-54.8 95-1.3 2.2-5.3 9.1-8.9 15.3l-6.6 11.4.2 24.1.3 24.2h39l9.3-16c5.1-8.8 9.6-16.7 9.9-17.5.3-.8 1.1-2.2 1.8-3 .7-.8 2.6-4 4.2-7 3.4-6.2 12.5-21.9 17-29.5 1.6-2.8 3.2-5.7 3.6-6.5.4-.8 1.5-2.9 2.5-4.5 1.9-3 34.1-58.8 38-65.5 2.9-5.2 19.1-33.3 20.1-35 .5-.8 4.7-8 9.3-16 4.6-8 8.8-15.2 9.3-16.2.6-.9 2.4-4 4-7 1.7-2.9 7.5-13 13-22.3 5.4-9.4 10.9-19 12.3-21.5 1.4-2.5 2.8-5 3.2-5.5.4-.6 7.9-13.4 16.5-28.5 8.7-15.1 18.2-31.6 21-36.5 2.8-5 9.3-16.2 14.5-25 5.1-8.8 10.3-17.8 11.5-20 4.4-7.8 23.5-41 24.4-42.5 5.9-9.6 17.2-30.1 16.9-30.7-.3-.8-300.6-1.2-301.4-.4z"/></svg>