<?xml version="1.0" standalone="no"?>
<!DOCTYPE svg PUBLIC "-//W3C//DTD SVG 20010904//EN"
 "http://www.w3.org/TR/2001/REC-SVG-20010904/DTD/svg10.dtd">
<svg version="1.0" xmlns="http://www.w3.org/2000/svg"
 width="700.000000pt" height="700.000000pt" viewBox="0 0 700.000000 700.000000"
 preserveAspectRatio="xMidYMid meet">
<metadata>
Created by potrace 1.14, written by Peter Selinger 2001-2017
</metadata>
<g transform="translate(0.000000,700.000000) scale(0.100000,-0.100000)"
fill="#000000" stroke="none">
<path d="M80 6123 c0 -1 22 -40 49 -85 27 -46 59 -101 71 -123 12 -22 73 -128
135 -235 209 -361 442 -765 467 -810 14 -25 83 -144 153 -265 71 -121 139
-240 153 -265 14 -25 71 -124 127 -220 56 -96 113 -195 127 -220 114 -202 443
-768 452 -778 9 -9 86 -12 343 -10 l330 3 -60 105 c-33 58 -68 121 -79 140
-11 19 -35 60 -53 90 -18 30 -44 75 -57 100 -14 25 -67 117 -118 205 -51 88
-101 174 -110 190 -44 77 -191 332 -199 345 -5 8 -53 92 -107 185 -185 322
-484 840 -494 855 -6 8 -14 24 -20 35 -5 11 -29 54 -53 95 l-45 75 1009 3
1009 2 -2 293 -3 292 -1512 0 c-832 0 -1513 -1 -1513 -2z"/>
<path d="M3894 6121 c-2 -2 -4 -134 -4 -293 l0 -288 1010 -2 1011 -3 -46 -73
c-25 -41 -45 -75 -45 -77 0 -2 -39 -70 -86 -152 -48 -81 -98 -168 -112 -193
-24 -42 -247 -428 -502 -870 -62 -107 -122 -211 -132 -230 -11 -19 -87 -150
-168 -290 -81 -140 -156 -271 -166 -290 -11 -19 -38 -66 -61 -105 -50 -84
-517 -893 -548 -950 -13 -22 -53 -91 -89 -153 l-66 -114 2 -241 3 -242 195 0
195 0 93 160 c51 88 96 167 99 175 3 8 11 22 18 30 7 8 26 40 42 70 34 62 125
219 170 295 16 28 32 57 36 65 4 8 15 29 25 45 19 30 341 588 380 655 29 52
191 333 201 350 5 8 47 80 93 160 46 80 88 152 93 162 6 9 24 40 40 70 17 29
75 130 130 223 54 94 109 190 123 215 14 25 28 50 32 55 4 6 79 134 165 285
87 151 182 316 210 365 28 50 93 162 145 250 51 88 103 178 115 200 44 78 235
410 244 425 59 96 172 301 169 307 -3 8 -3006 12 -3014 4z"/>
</g>
</svg>
